<?xml version="1.0" encoding="UTF-8" standalone="no"?>
<svg
   viewBox="0 0 64 64"
   version="1.1"
   id="svg200"
   sodipodi:docname="Extension.svg"
   inkscape:version="1.2.2 (b0a8486541, 2022-12-01)"
   xmlns:inkscape="http://www.inkscape.org/namespaces/inkscape"
   xmlns:sodipodi="http://sodipodi.sourceforge.net/DTD/sodipodi-0.dtd"
   xmlns="http://www.w3.org/2000/svg"
   xmlns:svg="http://www.w3.org/2000/svg">
  <defs
     id="defs204" />
  <sodipodi:namedview
     id="namedview202"
     pagecolor="#505050"
     bordercolor="#ffffff"
     borderopacity="1"
     inkscape:showpageshadow="0"
     inkscape:pageopacity="0"
     inkscape:pagecheckerboard="1"
     inkscape:deskcolor="#505050"
     showgrid="false"
     inkscape:zoom="12.265625"
     inkscape:cx="31.959236"
     inkscape:cy="32.081529"
     inkscape:window-width="1870"
     inkscape:window-height="1011"
     inkscape:window-x="0"
     inkscape:window-y="0"
     inkscape:window-maximized="1"
     inkscape:current-layer="svg200" />
  <path
     fill="#ee8433"
     d="M 0,0 H 63.999994 V 63.999999 H 0 Z"
     id="path192"
     style="fill:#96bf0d;fill-opacity:1;stroke-width:1" />
  <path
     d="m 35.423812,35.969732 0.386,-0.4388 h -0.7888 z"
     style="fill:#ffffff;fill-opacity:1;fill-rule:nonzero;stroke:none;stroke-width:0.00587332"
     id="path16" />
  <path
     d="M 39.914266,25.416533 H 25.791973 v -2.033334 h 14.122293 z m 0,3.371466 H 23.383373 V 26.754666 H 39.914266 Z M 20.869599,16.4696 v 29.336133 h 16.570707 v -4.181467 c 0,-0.1804 0.0736,-0.356667 0.201213,-0.484267 0.127573,-0.127467 0.303547,-0.200533 0.48408,-0.200533 h 4.35796 v -9.247067 l -6.111373,6.945867 c -0.23212,0.263466 -0.5656,0.416133 -0.9288,0.419866 -0.345894,0 -0.678614,-0.146133 -0.912134,-0.400933 l -2.868893,-3.126267 h -8.278986 v -2.033333 h 14.181666 v 0.03853 l 1.21144,-1.376533 H 23.383373 v -2.0336 h 16.530893 v 0.74 l 2.569293,-2.919733 V 16.4696 h -21.61396"
     style="fill:#ffffff;fill-opacity:1;fill-rule:nonzero;stroke:none;stroke-width:0.00587332"
     id="path18" />
  <path
     d="m 38.810599,45.830266 v -3.5212 h 3.64804 z m 3.67296,-4.8908 h -4.35796 c -0.180533,0 -0.356507,0.07307 -0.48408,0.200533 -0.127613,0.1276 -0.201213,0.303867 -0.201213,0.484267 v 4.181467 H 20.869599 V 16.4696 h 21.61396 v 11.476666 l 1.369893,-1.556667 V 15.784933 c 0,-0.1804 -0.07325,-0.356666 -0.200453,-0.4844 C 43.525359,15.1732 43.348745,15.1 43.168492,15.1 H 20.184999 c -0.180946,0 -0.356853,0.0732 -0.484493,0.200533 -0.127613,0.127734 -0.200506,0.304 -0.200506,0.4844 v 30.705866 c 0,0.180534 0.07289,0.3568 0.200506,0.484267 0.12764,0.127467 0.303547,0.200667 0.484493,0.200667 h 18.796933 c 0.180187,0 0.355094,-0.07187 0.482387,-0.198934 l 2.111733,-2.097866 0.0028,-0.0027 2.074813,-2.083467 c 0.127627,-0.128 0.19976,-0.303333 0.19976,-0.483466 V 30.135866 l -1.369893,1.5568 v 9.247066"
     style="fill:#616e7d;fill-opacity:1;fill-rule:nonzero;stroke:none;stroke-width:0.00587332"
     id="path20" />
  <path
     d="m 38.810599,45.830266 3.64804,-3.5212 h -3.64804 z"
     style="fill:#ffffff;fill-opacity:1;fill-rule:nonzero;stroke:none;stroke-width:0.00587332"
     id="path22" />
  <path
     d="M 25.791973,25.416533 H 39.914266 V 23.383199 H 25.791973 v 2.033334"
     style="fill:#82bfab;fill-opacity:1;fill-rule:nonzero;stroke:none;stroke-width:0.00587332"
     id="path24" />
  <path
     d="M 23.383373,28.787999 H 39.914266 V 26.754666 H 23.383373 v 2.033333"
     style="fill:#82bfab;fill-opacity:1;fill-rule:nonzero;stroke:none;stroke-width:0.00587332"
     id="path26" />
  <path
     d="m 23.383373,30.125999 v 2.0336 h 15.393106 l 1.137787,-1.2936 v -0.74 H 23.383373"
     style="fill:#82bfab;fill-opacity:1;fill-rule:nonzero;stroke:none;stroke-width:0.00587332"
     id="path28" />
  <path
     d="m 23.383373,33.497599 v 2.033333 h 8.278986 l -0.49264,-0.536933 -0.60608,-0.660666 c -0.101306,-0.1108 -0.118413,-0.274934 -0.04159,-0.4044 0.0622,-0.105067 0.17456,-0.1672 0.292907,-0.1672 l 0.08176,0.01067 3.143626,0.774133 c 0.06508,0.0164 0.123707,0.05147 0.169214,0.1008 l 0.811453,0.884 h 0.7888 l 1.755227,-1.9948 v -0.03853 H 23.383373"
     style="fill:#82bfab;fill-opacity:1;fill-rule:nonzero;stroke:none;stroke-width:0.00587332"
     id="path30" />
  <path
     d="m 47.383892,25.607199 -1.345747,-1.1844 c -0.06227,-0.0552 -0.1422,-0.08533 -0.225013,-0.08533 l -0.02172,0.0013 c -0.09063,0.0053 -0.174853,0.04707 -0.234307,0.1152 l -1.703653,1.936137 -1.369893,1.5568 -2.569293,2.919733 -1.137787,1.293467 -1.21144,1.376533 -1.755227,1.9948 -0.386,0.4388 -0.4028,-0.4388 -0.811453,-0.884133 c -0.04551,-0.04933 -0.104133,-0.08427 -0.169213,-0.100667 l -3.143627,-0.774133 -0.08176,-0.01067 c -0.118347,0 -0.230707,0.06213 -0.292907,0.1672 -0.07683,0.129466 -0.05972,0.293466 0.04159,0.4044 l 0.60608,0.660533 0.49264,0.536933 2.868894,3.126267 c 0.23352,0.2548 0.56624,0.400933 0.912133,0.400933 0.3632,-0.004 0.69668,-0.1564 0.9288,-0.419867 l 6.111373,-6.945732 1.369893,-1.556934 3.561347,-4.0476 c 0.124746,-0.141066 0.11088,-0.356533 -0.03091,-0.4808"
     style="fill:#aad4c8;fill-opacity:1;fill-rule:nonzero;stroke:none;stroke-width:0.00587332"
     id="path32" />
</svg>
